<?xml version="1.0" encoding="utf-8"?>
<!-- Generator: Adobe Illustrator 18.1.0, SVG Export Plug-In . SVG Version: 6.00 Build 0)  -->
<!DOCTYPE svg PUBLIC "-//W3C//DTD SVG 1.1//EN" "http://www.w3.org/Graphics/SVG/1.1/DTD/svg11.dtd">
<svg version="1.1" id="Layer_1" xmlns="http://www.w3.org/2000/svg" xmlns:xlink="http://www.w3.org/1999/xlink" x="0px" y="0px"
	 viewBox="0 0 50 50" enable-background="new 0 0 50 50" xml:space="preserve">
<path fill="#FFFFFF" d="M45,50H5c-2.7,0-5-2.3-5-5V5c0-2.7,2.3-5,5-5h40c2.8,0,5,2.3,5,5v40C50,47.8,47.8,50,45,50z M42.5,20H35v-5
	c0-1.5,1-2.5,2.5-2.5h5V5h-6.2c-4.8,0-8.8,4-8.8,8.8V20h-5v7.5h5V45H35V27.5h7.5V20z"/>
</svg>
