<?xml version="1.0" encoding="utf-8"?>
<!-- Generator: Adobe Illustrator 18.1.0, SVG Export Plug-In . SVG Version: 6.00 Build 0)  -->
<!DOCTYPE svg PUBLIC "-//W3C//DTD SVG 1.1//EN" "http://www.w3.org/Graphics/SVG/1.1/DTD/svg11.dtd">
<svg version="1.1" id="Layer_1" xmlns="http://www.w3.org/2000/svg" xmlns:xlink="http://www.w3.org/1999/xlink" x="0px" y="0px"
	 viewBox="0 0 50 50" enable-background="new 0 0 50 50" xml:space="preserve">
<path fill="#FFFFFF" d="M45,50H5c-2.7,0-5-2.3-5-5V5c0-2.7,2.3-5,5-5h40c2.8,0,5,2.3,5,5v40C50,47.8,47.8,50,45,50z M19.8,7
	c-7,0-10.3,4.8-10.3,9c0,3.7,3,7.5,8,7.5h1c-0.3,0.5-0.3,0.8-0.3,1.3c0,1.2,0.3,2,0.8,2.5c-3.2,0.3-5.8,1-7.8,2.2
	c-3.5,2-3.8,4.8-3.8,6c0,3.5,3.3,7.5,10.3,7.5c9,0,12.3-5.3,12.3-9.7c0-4-2.8-5.8-4.8-7.3c-0.5-0.3-1-0.5-1.3-0.7
	c-0.5-0.3-1-0.8-1-1.5s0.5-1.5,1-1.8c2.3-1.5,4-3.3,4-6.7c0-2.8-1.3-4.5-2.3-5.5h1.8L30.3,7H19.8z M42.5,22.5h-5v-5H35v5h-5V25h5v5
	h2.5v-5h5V22.5z M19.5,21.3c-3.5,0-5-4.3-5-7.3c0-3.3,1.8-4.3,3.3-4.3c3.8,0,5.3,5,5.3,7.5C23,21,19.5,21.3,19.5,21.3z M21.5,29.5
	C24.8,32,26,33.3,26,35c0,2.5-2.3,5-6,5c-5,0-7.5-2.8-7.5-5.5c0-2.5,2-3.8,3.7-4.3c1.5-0.5,3.8-0.8,4.5-0.8
	C21,29.5,21.3,29.5,21.5,29.5z"/>
</svg>
