<?xml version="1.0" encoding="utf-8"?>
<!-- Generator: Adobe Illustrator 18.1.0, SVG Export Plug-In . SVG Version: 6.00 Build 0)  -->
<!DOCTYPE svg PUBLIC "-//W3C//DTD SVG 1.1//EN" "http://www.w3.org/Graphics/SVG/1.1/DTD/svg11.dtd">
<svg version="1.1" id="Layer_1" xmlns="http://www.w3.org/2000/svg" xmlns:xlink="http://www.w3.org/1999/xlink" x="0px" y="0px"
	 viewBox="0 0 50 50" enable-background="new 0 0 50 50" xml:space="preserve">
<path fill="#FFFFFF" d="M45,50H5c-2.8,0-5-2.3-5-5V5c0-2.7,2.2-5,5-5h40c2.8,0,5,2.3,5,5v40C50,47.8,47.8,50,45,50z M35,35
	c0,0-2.5,0-4.8,0c-2.5,0-2.8-1-2.8-2.8c0-0.2,0-9.7,0-9.7H35V15h-7.5V7.5H22c-0.5,3-1,7.5-7,8v7h5c0,0,0,8.8,0,11.8
	c0,4.5,3.3,8.5,9.8,8.5c2.8,0,5.3-0.3,5.3-0.3V35z"/>
</svg>
