<?xml version="1.0" encoding="utf-8"?>
<!-- Generator: Adobe Illustrator 18.0.0, SVG Export Plug-In . SVG Version: 6.00 Build 0)  -->
<!DOCTYPE svg PUBLIC "-//W3C//DTD SVG 1.1//EN" "http://www.w3.org/Graphics/SVG/1.1/DTD/svg11.dtd">
<svg version="1.1" id="Layer_1" xmlns="http://www.w3.org/2000/svg" xmlns:xlink="http://www.w3.org/1999/xlink" x="0px" y="0px"
	 viewBox="0 0 600 144" enable-background="new 0 0 600 144" xml:space="preserve">
<g>
	<path fill="#FFFFFF" d="M12,140.9c-5,0-9-4-9-9V12.1c0-5,4-9,9-9h576c5,0,9,4,9,9v119.8c0,5-4,9-9,9H12z"/>
	<path fill="#D4D4D4" d="M588,6.1c3.3,0,6,2.7,6,6v119.8c0,3.3-2.7,6-6,6H12c-3.3,0-6-2.7-6-6V12.1c0-3.3,2.7-6,6-6H588 M588,0.1H12
		c-6.6,0-12,5.4-12,12v119.8c0,6.6,5.4,12,12,12h576c6.6,0,12-5.4,12-12V12.1C600,5.5,594.6,0.1,588,0.1L588,0.1z"/>
</g>
<g>
	<path fill="#5FA9DD" d="M60.7,127.5c-15.8,0-30.6-4.6-43-12.6c2.2,0.3,4.4,0.4,6.7,0.4c13.1,0,25.2-4.5,34.8-12
		C47,103.1,36.6,95,33.1,83.8c1.7,0.3,3.5,0.5,5.3,0.5c2.6,0,5-0.3,7.4-1c-12.8-2.6-22.5-13.9-22.5-27.5c0-0.1,0-0.2,0-0.4
		c3.8,2.1,8.1,3.4,12.7,3.5c-7.5-5-12.5-13.6-12.5-23.3c0-5.1,1.4-9.9,3.8-14.1c13.8,17,34.5,28.1,57.8,29.3
		c-0.5-2.1-0.7-4.2-0.7-6.4c0-15.5,12.5-28,28-28c8.1,0,15.3,3.4,20.5,8.8c6.4-1.3,12.4-3.6,17.8-6.8c-2.1,6.5-6.5,12-12.3,15.5
		c5.7-0.7,11.1-2.2,16.1-4.4c-3.8,5.6-8.5,10.6-14,14.5c0.1,1.2,0.1,2.4,0.1,3.6C140.4,84.8,112.2,127.5,60.7,127.5"/>
</g>
<g>
	<path d="M250.3,78.8c-0.1,1.5-0.2,2.9-0.5,4.4c-0.3,1.5-0.6,2.9-1.1,4.2s-1.1,2.6-1.9,3.8c-0.8,1.2-1.7,2.2-2.7,3
		c-1,0.9-2.2,1.5-3.6,2c-1.3,0.5-2.9,0.7-4.5,0.7c-2,0-3.8-0.5-5.1-1.4c-1.4-0.9-2.4-2.2-3-3.8c-1.1,1.7-2.5,3-4,3.8
		c-1.5,0.9-3.1,1.3-4.8,1.3s-3.1-0.4-4.4-1.1c-1.3-0.7-2.3-1.7-3.1-3c-0.8-1.3-1.4-2.9-1.7-4.7c-0.3-1.8-0.4-3.9-0.2-6.1
		c0.3-2.9,0.9-5.6,1.8-7.9c0.9-2.4,2.1-4.4,3.4-6c1.3-1.7,2.9-2.9,4.6-3.8c1.7-0.9,3.5-1.3,5.3-1.3c1.3,0,2.4,0.1,3.3,0.3
		c1,0.2,1.8,0.5,2.6,0.8s1.5,0.7,2.2,1.2c0.7,0.4,1.3,0.9,2,1.4l-1.8,19c-0.1,1.4-0.1,2.5,0.1,3.4c0.2,0.9,0.5,1.5,0.9,2
		c0.4,0.5,0.8,0.8,1.3,1c0.5,0.2,1,0.3,1.5,0.3c1.2,0,2.3-0.3,3.3-1c1-0.7,1.8-1.6,2.5-2.8c0.7-1.2,1.2-2.6,1.6-4.2s0.6-3.3,0.7-5.2
		c0.2-4-0.1-7.5-0.9-10.7c-0.8-3.2-2-5.9-3.7-8.1c-1.7-2.2-3.9-3.9-6.7-5.1c-2.7-1.2-6-1.8-9.7-1.8c-3.5,0-6.6,0.7-9.4,2
		c-2.8,1.3-5.2,3.2-7.1,5.6c-2,2.4-3.5,5.3-4.7,8.6c-1.1,3.3-1.8,7-1.9,10.9c-0.2,4.2,0.1,7.9,1,11.1c0.9,3.2,2.2,5.9,4,8.2
		c1.8,2.2,4,3.9,6.7,5.1s5.8,1.7,9.3,1.7c1,0,2-0.1,3-0.2c1-0.1,2-0.3,3-0.5c1-0.2,1.9-0.5,2.8-0.8s1.7-0.6,2.4-1l1.3,4.6
		c-0.8,0.5-1.7,1-2.7,1.3c-1,0.4-2.1,0.7-3.2,0.9c-1.1,0.2-2.2,0.4-3.4,0.6c-1.2,0.1-2.3,0.2-3.3,0.2c-4.4,0-8.2-0.7-11.7-2.1
		c-3.4-1.4-6.3-3.4-8.6-6.1c-2.3-2.7-4-5.9-5.1-9.8c-1.1-3.9-1.6-8.2-1.4-13.2c0.1-3.1,0.6-6,1.2-8.8c0.7-2.8,1.6-5.4,2.9-7.8
		c1.2-2.4,2.6-4.5,4.3-6.5c1.7-1.9,3.6-3.6,5.7-4.9c2.1-1.4,4.4-2.4,6.9-3.1c2.5-0.7,5.2-1.1,8.1-1.1c4.3,0,8.2,0.7,11.5,2.2
		c3.3,1.5,6.1,3.5,8.3,6.2c2.2,2.7,3.9,5.9,4.9,9.6C250.1,70,250.5,74.2,250.3,78.8z M216.3,82.1c-0.3,3.1,0,5.4,0.8,7
		c0.8,1.6,2.2,2.4,4,2.4c0.5,0,1-0.1,1.5-0.3s1.1-0.5,1.6-1c0.5-0.5,1.1-1.1,1.6-1.9s1-1.7,1.4-2.8l1.5-16.6c-0.5-0.2-1-0.3-1.5-0.5
		c-0.6-0.1-1.1-0.2-1.7-0.2c-2.5,0-4.5,1.2-6.1,3.5C217.7,74,216.7,77.5,216.3,82.1z"/>
	<path d="M258.5,96.3V47.2H273c3.3,0,6.3,0.6,9,1.7c2.7,1.1,5,2.7,7,4.7c1.9,2,3.5,4.5,4.5,7.4c1.1,2.9,1.6,6.1,1.6,9.6V73
		c0,3.6-0.5,6.8-1.6,9.6c-1.1,2.9-2.6,5.3-4.6,7.3c-2,2-4.3,3.6-7.1,4.7s-5.9,1.7-9.3,1.7H258.5z M267,54.1v35.4h5.6
		c2.3,0,4.4-0.4,6.1-1.1c1.8-0.8,3.2-1.8,4.4-3.3c1.2-1.4,2-3.1,2.6-5.2c0.6-2,0.9-4.4,0.9-6.9v-2.5c0-5.3-1.2-9.4-3.5-12.2
		c-2.3-2.8-5.7-4.2-10.1-4.2H267z"/>
	<path d="M324.6,96.3c-0.2-0.4-0.4-0.9-0.6-1.5c-0.1-0.6-0.3-1.2-0.4-1.9c-0.5,0.6-1.1,1.1-1.8,1.6c-0.7,0.5-1.4,0.9-2.2,1.3
		c-0.8,0.4-1.7,0.7-2.6,0.9c-0.9,0.2-1.9,0.3-3,0.3c-1.8,0-3.5-0.3-5-0.8s-2.8-1.3-3.9-2.3c-1.1-1-1.9-2.1-2.6-3.5
		c-0.6-1.3-0.9-2.8-0.9-4.3c0-2,0.4-3.7,1.1-5.2c0.7-1.5,1.8-2.8,3.2-3.8c1.4-1,3.2-1.8,5.2-2.3c2.1-0.5,4.4-0.8,7-0.8h5.2v-2.4
		c0-1.9-0.5-3.4-1.6-4.5c-1.1-1.1-2.7-1.7-4.8-1.7c-1,0-1.8,0.1-2.6,0.4c-0.8,0.3-1.5,0.6-2,1s-1,1-1.3,1.6c-0.3,0.6-0.5,1.3-0.5,2
		h-8.2c0-1.4,0.4-2.8,1.1-4.2c0.7-1.3,1.7-2.5,3-3.6c1.3-1,2.9-1.9,4.7-2.5c1.9-0.6,3.9-0.9,6.2-0.9c2,0,3.9,0.3,5.7,0.8
		c1.7,0.5,3.2,1.3,4.5,2.4c1.3,1,2.2,2.4,2.9,3.9s1,3.4,1,5.5v16.2c0,3.3,0.5,5.9,1.4,7.9v0.6H324.6z M315.6,90.4
		c0.9,0,1.8-0.1,2.6-0.4c0.8-0.2,1.6-0.6,2.2-1c0.7-0.4,1.2-0.9,1.7-1.4c0.5-0.5,0.9-1.1,1.2-1.6v-6.9H319c-3,0-5.3,0.5-6.8,1.6
		c-1.5,1.1-2.3,2.6-2.3,4.5c0,0.7,0.1,1.4,0.4,2.1s0.6,1.2,1.1,1.6s1.1,0.8,1.8,1.1C313.9,90.3,314.7,90.4,315.6,90.4z"/>
	<path d="M372.2,78.4c0,2.7-0.3,5.2-0.9,7.5c-0.6,2.3-1.5,4.2-2.7,5.9c-1.2,1.6-2.7,2.9-4.5,3.8c-1.8,0.9-3.8,1.4-6.1,1.4
		c-2.2,0-4.2-0.4-5.8-1.2s-3-1.9-4.2-3.4l-0.4,3.9h-7.4V44.5h8.2v18.8c1.1-1.3,2.5-2.4,4.1-3.1c1.6-0.7,3.4-1.1,5.5-1.1
		c2.4,0,4.4,0.5,6.2,1.4c1.8,0.9,3.3,2.2,4.5,3.8s2.1,3.6,2.7,5.9c0.6,2.3,0.9,4.8,0.9,7.5V78.4z M364,77.7c0-1.6-0.1-3.1-0.4-4.6
		c-0.3-1.4-0.7-2.7-1.3-3.8c-0.6-1.1-1.5-1.9-2.5-2.6s-2.4-1-3.9-1c-1.9,0-3.5,0.4-4.7,1.3c-1.2,0.8-2.1,2-2.8,3.4v15
		c0.7,1.4,1.6,2.6,2.8,3.4s2.8,1.3,4.7,1.3c1.5,0,2.8-0.3,3.8-0.9c1-0.6,1.9-1.5,2.5-2.5c0.6-1.1,1.1-2.3,1.4-3.8
		c0.3-1.4,0.4-3,0.4-4.7V77.7z"/>
	<path d="M401.2,92.7c-1.1,1.3-2.6,2.4-4.3,3.1s-3.7,1.1-6,1.1c-1.8,0-3.4-0.3-4.9-0.8c-1.5-0.5-2.7-1.3-3.8-2.4
		c-1.1-1.1-1.9-2.5-2.5-4.2c-0.6-1.7-0.9-3.8-0.9-6.2V59.8h8.2v23.7c0,1.3,0.2,2.4,0.5,3.3c0.3,0.9,0.7,1.6,1.3,2.1s1.1,0.9,1.8,1.1
		c0.7,0.2,1.4,0.3,2.2,0.3c2.1,0,3.8-0.4,5.1-1.1c1.3-0.8,2.3-1.8,2.9-3.1V59.8h8.2v36.5h-7.7L401.2,92.7z"/>
	<path d="M435.2,64.9l10.3-17.7h9.8l-14.8,24.4l15.2,24.8h-10l-10.6-18l-10.6,18h-9.9l15.2-24.8L415,47.2h9.8L435.2,64.9z"/>
	<path d="M461.2,50.3c0-1.3,0.4-2.3,1.2-3.1c0.8-0.8,1.9-1.2,3.4-1.2c1.5,0,2.6,0.4,3.4,1.2s1.2,1.9,1.2,3.1c0,1.2-0.4,2.3-1.2,3.1
		c-0.8,0.8-2,1.2-3.4,1.2c-1.5,0-2.6-0.4-3.4-1.2C461.6,52.6,461.2,51.6,461.2,50.3z M469.9,96.3h-8.2V59.8h8.2V96.3z"/>
	<path d="M500.7,96.3c-0.2-0.4-0.4-0.9-0.6-1.5c-0.1-0.6-0.3-1.2-0.4-1.9c-0.5,0.6-1.1,1.1-1.8,1.6c-0.7,0.5-1.4,0.9-2.2,1.3
		c-0.8,0.4-1.7,0.7-2.6,0.9c-0.9,0.2-1.9,0.3-3,0.3c-1.8,0-3.5-0.3-5-0.8c-1.5-0.6-2.8-1.3-3.9-2.3c-1.1-1-1.9-2.1-2.6-3.5
		c-0.6-1.3-0.9-2.8-0.9-4.3c0-2,0.4-3.7,1.1-5.2c0.7-1.5,1.8-2.8,3.2-3.8c1.4-1,3.2-1.8,5.2-2.3c2.1-0.5,4.4-0.8,7-0.8h5.2v-2.4
		c0-1.9-0.5-3.4-1.6-4.5c-1.1-1.1-2.7-1.7-4.8-1.7c-1,0-1.8,0.1-2.6,0.4c-0.8,0.3-1.5,0.6-2,1s-1,1-1.3,1.6c-0.3,0.6-0.5,1.3-0.5,2
		h-8.2c0-1.4,0.4-2.8,1.1-4.2c0.7-1.3,1.7-2.5,3-3.6c1.3-1,2.9-1.9,4.7-2.5c1.9-0.6,3.9-0.9,6.2-0.9c2,0,3.9,0.3,5.7,0.8
		c1.7,0.5,3.2,1.3,4.5,2.4c1.3,1,2.2,2.4,2.9,3.9c0.7,1.6,1,3.4,1,5.5v16.2c0,3.3,0.5,5.9,1.4,7.9v0.6H500.7z M491.6,90.4
		c0.9,0,1.8-0.1,2.6-0.4c0.8-0.2,1.6-0.6,2.2-1c0.7-0.4,1.2-0.9,1.7-1.4c0.5-0.5,0.9-1.1,1.2-1.6v-6.9H495c-3,0-5.3,0.5-6.8,1.6
		c-1.5,1.1-2.3,2.6-2.3,4.5c0,0.7,0.1,1.4,0.4,2.1c0.2,0.6,0.6,1.2,1.1,1.6c0.5,0.5,1.1,0.8,1.8,1.1
		C489.9,90.3,490.7,90.4,491.6,90.4z"/>
	<path d="M523.8,59.8l0.2,4.2c1.3-1.6,2.8-2.8,4.6-3.6c1.8-0.9,3.8-1.3,6-1.3c1.8,0,3.3,0.2,4.8,0.7c1.4,0.5,2.6,1.3,3.7,2.3
		c1,1.1,1.8,2.5,2.3,4.2c0.6,1.7,0.8,3.8,0.8,6.3v23.6h-8.2V72.6c0-1.3-0.1-2.3-0.4-3.2c-0.3-0.9-0.7-1.6-1.2-2.1
		c-0.5-0.5-1.2-0.9-2-1.2c-0.8-0.2-1.7-0.4-2.7-0.4c-1.7,0-3.2,0.4-4.4,1.2c-1.2,0.8-2.2,1.9-3,3.3v26h-8.2V59.8H523.8z"/>
</g>
<g>
</g>
<g>
</g>
<g>
</g>
<g>
</g>
<g>
</g>
<g>
</g>
<g>
</g>
<g>
</g>
<g>
</g>
<g>
</g>
<g>
</g>
<g>
</g>
<g>
</g>
<g>
</g>
<g>
</g>
</svg>
