<?xml version="1.0" encoding="utf-8"?>
<!-- Generator: Adobe Illustrator 18.1.0, SVG Export Plug-In . SVG Version: 6.00 Build 0)  -->
<!DOCTYPE svg PUBLIC "-//W3C//DTD SVG 1.1//EN" "http://www.w3.org/Graphics/SVG/1.1/DTD/svg11.dtd">
<svg version="1.1" id="Layer_1" xmlns="http://www.w3.org/2000/svg" xmlns:xlink="http://www.w3.org/1999/xlink" x="0px" y="0px"
	 viewBox="0 0 50 50" enable-background="new 0 0 50 50" xml:space="preserve">
<path fill="#FFFFFF" d="M45,50H5c-2.7,0-5-2.3-5-5V5c0-2.7,2.3-5,5-5h40c2.8,0,5,2.3,5,5v40C50,47.8,47.8,50,45,50z M41.3,12.3
	c-1.3,0.5-2.5,1.2-4.2,1.5c-3.8-4.8-13.3-1-11.5,6c-6.5-0.5-10.5-3.5-13.8-7c-1.8,3-0.3,7.8,2,9c-1,0-2-0.3-2.8-0.8
	c0.3,4,2.3,5.8,5.3,6.7c-0.8,0-1.8,0.3-2.8,0c1,2.7,3,4.5,6.2,4.7c-2.3,2-6.5,3.3-9.8,2.8c3,1.8,6.3,3.3,10.8,3
	c11-0.5,18.3-8.5,18.5-20c1.2-1,2.5-2,2.8-3.2c-1,0.5-2.3,0.7-3.5,1C39.8,15,40.8,14,41.3,12.3z"/>
</svg>
